<svg height="512pt" viewBox="0 0 512 512" width="512pt" xmlns="http://www.w3.org/2000/svg"><path fill="#dae2e9" d="m216.4375 223.9375v8.015625c0 4.140625 3.355469 7.5 7.5 7.5 4.140625 0 7.5-3.359375 7.5-7.5v-8.015625c0-4.144531-3.359375-7.5-7.5-7.5-4.144531 0-7.5 3.355469-7.5 7.5zm0 0"/><path fill="#dae2e9" d="m288.0625 239.453125c4.144531 0 7.5-3.359375 7.5-7.5v-8.015625c0-4.144531-3.355469-7.5-7.5-7.5-4.140625 0-7.5 3.355469-7.5 7.5v8.015625c0 4.140625 3.359375 7.5 7.5 7.5zm0 0"/><path fill="#dae2e9" d="m235.847656 270.285156c5.964844 3.917969 12.933594 5.992188 20.152344 5.992188s14.1875-2.074219 20.152344-5.992188c3.460937-2.277344 4.421875-6.925781 2.148437-10.386718-2.277343-3.464844-6.925781-4.425782-10.390625-2.148438-3.507812 2.308594-7.628906 3.527344-11.910156 3.527344s-8.402344-1.222656-11.914062-3.527344c-3.460938-2.277344-8.109376-1.3125-10.386719 2.148438-2.273438 3.460937-1.3125 8.109374 2.148437 10.386718zm0 0"/><path fill="#dae2e9" d="m168.339844 207.902344c0 20.386718 7.140625 40.167968 20.105468 55.839844 5.214844 14.78125 15.148438 27.355468 27.988282 35.898437v17.011719c0 3.316406-1.945313 6.359375-4.957032 7.746094l-48.859374 22.550781c-11.132813 5.140625-18.328126 16.382812-18.328126 28.648437v8.660156c0 4.140626 3.359376 7.5 7.5 7.5 4.144532 0 7.5-3.359374 7.5-7.5v-8.660156c0-6.433594 3.773438-12.332031 9.613282-15.027344l24.234375-11.183593c18.078125 17.015625 40.269531 26.339843 62.867187 26.339843h.277344c22.5-.078124 44.578125-9.402343 62.582031-26.339843l24.230469 11.183593c5.839844 2.695313 9.613281 8.59375 9.613281 15.027344v8.660156c0 4.144532 3.359375 7.5 7.5 7.5 4.144531 0 7.5-3.355468 7.5-7.5v-8.660156c0-12.261718-7.191406-23.507812-18.328125-28.644531l-48.859375-22.550781c-3.011719-1.390625-4.957031-4.433594-4.957031-7.75v-17.011719c12.835938-8.539063 22.761719-21.097656 27.984375-35.871094.027344-.035156.0625-.066406.09375-.101562 12.910156-15.644531 20.019531-35.445313 20.019531-55.765625 0-30.824219-15.996094-57.980469-40.121094-73.613282-.777343-25.558593-21.800781-46.109374-47.542968-46.109374-25.738282 0-46.761719 20.550781-47.542969 46.109374-24.121094 15.632813-40.113281 42.789063-40.113281 73.613282zm125.894531 130.117187 9.75 4.5c-14.320313 11.875-30.660156 18.148438-47.753906 18.207031-.082031 0-.15625 0-.238281 0-17.160157 0-33.589844-6.269531-47.984376-18.203124l9.757813-4.503907c8.304687-3.832031 13.667969-12.21875 13.667969-21.367187v-9.398438c7.667968 2.808594 15.941406 4.339844 24.566406 4.339844s16.898438-1.53125 24.5625-4.339844v9.398438c0 9.148437 5.367188 17.535156 13.671875 21.367187zm34.425781-130.117187c0 5.277344-.578125 10.511718-1.703125 15.613281-2.046875-8.496094-8.699219-15.296875-17.574219-17.371094-17.796874-4.160156-50.835937-14.320312-72.125-35.609375-2.929687-2.929687-7.679687-2.929687-10.609374 0-2.925782 2.929688-2.925782 7.679688 0 10.605469 23.925781 23.925781 59.964843 35.085937 79.320312 39.609375 3.921875.914062 6.660156 4.335938 6.660156 8.320312v10.894532c0 31.226562-25.402344 56.628906-56.628906 56.628906-31.222656 0-56.628906-25.402344-56.628906-56.628906v-17.40625c0-2.277344.890625-4.417969 2.5-6.03125l11.335937-11.335938c2.929688-2.929687 2.929688-7.679687 0-10.605468-2.929687-2.929688-7.679687-2.929688-10.605469 0l-11.335937 11.335937c-3.976563 3.976563-6.351563 9.128906-6.804687 14.671875-.742188-4.167969-1.121094-8.414062-1.121094-12.691406 0-40.066406 32.597656-72.660156 72.660156-72.660156 40.066406 0 72.660156 32.59375 72.660156 72.660156zm-72.660156-104.726563c14.542969 0 26.886719 9.578125 31.0625 22.757813-9.660156-3.671875-20.128906-5.691406-31.0625-5.691406s-21.402344 2.019531-31.0625 5.691406c4.175781-13.179688 16.519531-22.757813 31.0625-22.757813zm0 0"/><path fill="#dae2e9" d="m256 63.097656c17.394531 0 31.546875-14.152344 31.546875-31.546875 0-17.398437-14.152344-31.550781-31.546875-31.550781s-31.546875 14.152344-31.546875 31.546875c0 17.398437 14.152344 31.550781 31.546875 31.550781zm0-48.097656c9.125 0 16.546875 7.421875 16.546875 16.546875s-7.421875 16.550781-16.546875 16.550781-16.546875-7.421875-16.546875-16.546875 7.421875-16.550781 16.546875-16.550781zm0 0"/><path fill="#dae2e9" d="m256 448.902344c-17.394531 0-31.546875 14.152344-31.546875 31.546875 0 17.398437 14.152344 31.550781 31.546875 31.550781s31.546875-14.152344 31.546875-31.546875c0-17.398437-14.152344-31.550781-31.546875-31.550781zm0 48.097656c-9.125 0-16.546875-7.421875-16.546875-16.546875s7.421875-16.550781 16.546875-16.550781 16.546875 7.425781 16.546875 16.550781-7.421875 16.546875-16.546875 16.546875zm0 0"/><path fill="#dae2e9" d="m480.453125 224.453125c-17.398437 0-31.550781 14.152344-31.550781 31.546875s14.152344 31.546875 31.550781 31.546875c17.394531 0 31.546875-14.152344 31.546875-31.546875s-14.152344-31.546875-31.546875-31.546875zm0 48.09375c-9.125 0-16.550781-7.421875-16.550781-16.546875s7.425781-16.546875 16.550781-16.546875 16.546875 7.421875 16.546875 16.546875-7.421875 16.546875-16.546875 16.546875zm0 0"/><path fill="#dae2e9" d="m63.097656 256c0-17.394531-14.152344-31.546875-31.546875-31.546875-17.398437 0-31.550781 14.152344-31.550781 31.546875s14.152344 31.546875 31.546875 31.546875c17.398437 0 31.550781-14.152344 31.550781-31.546875zm-48.097656 0c0-9.125 7.421875-16.546875 16.546875-16.546875s16.550781 7.421875 16.550781 16.546875-7.421875 16.546875-16.546875 16.546875-16.550781-7.421875-16.550781-16.546875zm0 0"/><path fill="#dae2e9" d="m414.710938 128.835938c8.425781 0 16.347656-3.28125 22.308593-9.238282 5.957031-5.960937 9.238281-13.882812 9.238281-22.308594 0-8.429687-3.28125-16.351562-9.238281-22.308593-5.957031-5.960938-13.882812-9.242188-22.308593-9.242188-8.425782 0-16.351563 3.28125-22.308594 9.242188-5.957032 5.957031-9.242188 13.878906-9.242188 22.308593 0 8.425782 3.285156 16.347657 9.242188 22.308594 5.960937 5.957032 13.882812 9.238282 22.308594 9.238282zm-11.699219-43.25c3.125-3.125 7.277343-4.847657 11.699219-4.847657 4.421874 0 8.578124 1.722657 11.703124 4.847657 3.125 3.128906 4.847657 7.28125 4.847657 11.703124 0 4.417969-1.722657 8.574219-4.847657 11.699219-3.128906 3.128907-7.28125 4.847657-11.703124 4.847657-4.417969 0-8.574219-1.722657-11.699219-4.847657-3.128907-3.125-4.847657-7.277343-4.847657-11.699219 0-4.421874 1.71875-8.574218 4.847657-11.703124zm0 0"/><path fill="#dae2e9" d="m97.289062 383.164062c-8.425781 0-16.347656 3.28125-22.308593 9.238282-5.957031 5.960937-9.238281 13.882812-9.238281 22.308594 0 8.429687 3.28125 16.351562 9.238281 22.308593 5.957031 5.960938 13.882812 9.242188 22.308593 9.242188 8.425782 0 16.351563-3.28125 22.308594-9.242188 5.957032-5.957031 9.242188-13.878906 9.242188-22.308593 0-8.425782-3.285156-16.347657-9.242188-22.308594-5.960937-5.957032-13.882812-9.238282-22.308594-9.238282zm11.699219 43.25c-3.125 3.125-7.277343 4.847657-11.699219 4.847657-4.421874 0-8.578124-1.722657-11.703124-4.847657-3.125-3.128906-4.847657-7.28125-4.847657-11.703124 0-4.417969 1.722657-8.574219 4.847657-11.699219 3.128906-3.128907 7.28125-4.847657 11.703124-4.847657 4.417969 0 8.574219 1.722657 11.699219 4.847657 3.128907 3.125 4.847657 7.277343 4.847657 11.699219 0 4.421874-1.71875 8.574218-4.847657 11.703124zm0 0"/><path fill="#dae2e9" d="m414.710938 383.164062c-8.425782 0-16.351563 3.28125-22.308594 9.238282-5.957032 5.960937-9.242188 13.882812-9.242188 22.308594 0 8.429687 3.285156 16.351562 9.242188 22.308593 5.957031 5.960938 13.882812 9.242188 22.308594 9.242188 8.425781 0 16.347656-3.28125 22.308593-9.242188 5.957031-5.957031 9.238281-13.878906 9.238281-22.308593 0-8.425782-3.28125-16.347657-9.238281-22.308594-5.957031-5.957032-13.882812-9.238282-22.308593-9.238282zm11.703124 43.25c-3.125 3.125-7.28125 4.847657-11.703124 4.847657-4.417969 0-8.574219-1.722657-11.699219-4.847657-3.128907-3.128906-4.847657-7.28125-4.847657-11.703124 0-4.417969 1.722657-8.574219 4.847657-11.699219 3.125-3.128907 7.277343-4.847657 11.699219-4.847657 4.421874 0 8.578124 1.722657 11.703124 4.847657s4.847657 7.277343 4.847657 11.699219c-.003907 4.421874-1.722657 8.574218-4.847657 11.703124zm0 0"/><path fill="#dae2e9" d="m97.289062 65.742188c-8.425781 0-16.347656 3.28125-22.308593 9.238281-5.957031 5.957031-9.238281 13.882812-9.238281 22.308593 0 8.425782 3.28125 16.351563 9.238281 22.308594 5.957031 5.957032 13.882812 9.242188 22.308593 9.242188 8.425782 0 16.351563-3.285156 22.308594-9.242188 5.957032-5.957031 9.242188-13.882812 9.242188-22.308594 0-8.425781-3.285156-16.347656-9.242188-22.308593-5.960937-5.957031-13.882812-9.238281-22.308594-9.238281zm11.699219 43.246093c-3.125 3.125-7.277343 4.847657-11.699219 4.847657-4.421874 0-8.578124-1.722657-11.703124-4.847657s-4.847657-7.277343-4.847657-11.699219c0-4.421874 1.722657-8.578124 4.847657-11.703124 3.128906-3.125 7.28125-4.847657 11.703124-4.847657 4.417969 0 8.574219 1.722657 11.699219 4.847657 3.128907 3.128906 4.847657 7.28125 4.847657 11.703124 0 4.421876-1.71875 8.574219-4.847657 11.699219zm0 0"/><path fill="#dae2e9" d="m69.117188 366.167969c-10.394532-17.59375-18.210938-36.40625-23.234376-55.925781-1.03125-4.011719-5.121093-6.425782-9.132812-5.394532-4.011719 1.035156-6.425781 5.121094-5.394531 9.132813 5.375 20.882812 13.734375 41.007812 24.847656 59.816406 1.398437 2.367187 3.898437 3.6875 6.464844 3.6875 1.296875 0 2.609375-.335937 3.808593-1.046875 3.566407-2.105469 4.75-6.703125 2.640626-10.269531zm0 0"/><path fill="#dae2e9" d="m36.75 207.148438c.628906.164062 1.257812.242187 1.875.242187 3.339844 0 6.386719-2.25 7.257812-5.632813 5.023438-19.519531 12.839844-38.332031 23.234376-55.925781 2.109374-3.566406.925781-8.164062-2.640626-10.273437-3.566406-2.105469-8.164062-.921875-10.273437 2.644531-11.109375 18.804687-19.472656 38.929687-24.847656 59.816406-1.03125 4.007813 1.382812 8.097657 5.394531 9.128907zm0 0"/><path fill="#dae2e9" d="m373.796875 56.203125c-18.804687-11.109375-38.929687-19.472656-59.816406-24.847656-4.007813-1.03125-8.097657 1.382812-9.132813 5.394531-1.03125 4.011719 1.382813 8.101562 5.394532 9.132812 19.519531 5.023438 38.332031 12.84375 55.925781 23.234376 1.195312.710937 2.511719 1.046874 3.808593 1.046874 2.5625 0 5.0625-1.316406 6.464844-3.6875 2.105469-3.566406.921875-8.164062-2.644531-10.273437zm0 0"/><path fill="#dae2e9" d="m201.757812 466.117188c-19.519531-5.023438-38.332031-12.839844-55.925781-23.234376-3.566406-2.105468-8.164062-.925781-10.273437 2.640626-2.105469 3.566406-.921875 8.164062 2.644531 10.273437 18.804687 11.109375 38.929687 19.472656 59.816406 24.847656.625.160157 1.253907.238281 1.875.238281 3.339844 0 6.386719-2.25 7.257813-5.632812 1.03125-4.011719-1.382813-8.101562-5.394532-9.132812zm0 0"/><path fill="#dae2e9" d="m366.167969 442.882812c-17.59375 10.394532-36.40625 18.210938-55.925781 23.234376-4.011719 1.03125-6.425782 5.121093-5.394532 9.132812.871094 3.382812 3.917969 5.632812 7.257813 5.632812.621093 0 1.25-.078124 1.875-.238281 20.886719-5.375 41.011719-13.738281 59.816406-24.847656 3.566406-2.109375 4.75-6.707031 2.644531-10.273437-2.105468-3.566407-6.707031-4.75-10.273437-2.640626zm0 0"/><path fill="#dae2e9" d="m442.882812 145.832031c10.394532 17.59375 18.210938 36.40625 23.234376 55.925781.871093 3.382813 3.917968 5.632813 7.257812 5.632813.617188 0 1.246094-.078125 1.875-.242187 4.011719-1.03125 6.425781-5.121094 5.394531-9.132813-5.375-20.882813-13.734375-41.007813-24.847656-59.816406-2.105469-3.5625-6.703125-4.75-10.273437-2.640625-3.566407 2.109375-4.75 6.707031-2.640626 10.273437zm0 0"/><path fill="#dae2e9" d="m475.25 304.851562c-4.007812-1.035156-8.101562 1.378907-9.132812 5.390626-5.023438 19.519531-12.839844 38.332031-23.234376 55.925781-2.109374 3.566406-.925781 8.167969 2.640626 10.273437 1.199218.707032 2.511718 1.042969 3.808593 1.042969 2.566407 0 5.066407-1.316406 6.464844-3.683594 11.109375-18.808593 19.472656-38.933593 24.847656-59.816406 1.03125-4.011719-1.382812-8.101563-5.394531-9.132813zm0 0"/><path fill="#dae2e9" d="m142.023438 70.160156c1.296874 0 2.609374-.335937 3.808593-1.042968 17.59375-10.394532 36.40625-18.210938 55.925781-23.234376 4.011719-1.03125 6.425782-5.121093 5.394532-9.132812-1.035156-4.011719-5.121094-6.425781-9.132813-5.394531-20.886719 5.375-41.011719 13.734375-59.816406 24.847656-3.566406 2.105469-4.75 6.707031-2.644531 10.273437 1.402344 2.367188 3.898437 3.683594 6.464844 3.683594zm0 0"/></svg>