<?xml version="1.0"?>
<svg xmlns="http://www.w3.org/2000/svg" viewBox="0 0 64 64" width="512" height="512"><g id="Online_Payment-4" data-name="Online Payment"><path fill="#dae2e9" d="M49,57a3,3,0,0,1-3,3H18a3,3,0,0,1-3-3V51H13v6a5.006,5.006,0,0,0,5,5H46a5.006,5.006,0,0,0,5-5V51H49Z"/><path fill="#dae2e9" d="M15,7a3,3,0,0,1,3-3H46a3,3,0,0,1,3,3v6h2V7a5.006,5.006,0,0,0-5-5H18a5.006,5.006,0,0,0-5,5v6h2Z"/><path fill="#dae2e9" d="M48,12.994V7a2,2,0,0,0-2-2H40.535a2,2,0,0,0-1.581.775L37.612,7H26.388L25.046,5.775A2,2,0,0,0,23.465,5H18a2,2,0,0,0-2,2v6.062h2V7h5.465a.986.986,0,0,0,.158.184l1.7,1.555A1,1,0,0,0,26,9H38a1,1,0,0,0,.674-.261l1.7-1.555A1.025,1.025,0,0,0,40.535,7H46v5.994Z"/><path fill="#dae2e9" d="M16,51v1a2,2,0,0,0,2,2H46a2,2,0,0,0,2-2V51H46v1H18V51Z"/><path fill="#dae2e9" d="M32,29a7,7,0,1,0,7,7A7.008,7.008,0,0,0,32,29Zm0,12a5,5,0,1,1,5-5A5.006,5.006,0,0,1,32,41Z"/><path fill="#dae2e9" d="M54,15H10a3,3,0,0,0-3,3V46a3,3,0,0,0,3,3H54a3,3,0,0,0,3-3V18A3,3,0,0,0,54,15ZM10,17H54a1,1,0,0,1,1,1v1.184A2.966,2.966,0,0,0,54,19H10a2.966,2.966,0,0,0-1,.184V18A1,1,0,0,1,10,17Zm45,6.184A2.966,2.966,0,0,0,54,23H10a2.966,2.966,0,0,0-1,.184V22a1,1,0,0,1,1-1H54a1,1,0,0,1,1,1ZM55,46a1,1,0,0,1-1,1H10a1,1,0,0,1-1-1V26a1,1,0,0,1,1-1H54a1,1,0,0,1,1,1Z"/><path fill="#dae2e9" d="M12,29v4h2V30h3V28H13A1,1,0,0,0,12,29Z"/><path fill="#dae2e9" d="M51,28H47v2h3v3h2V29A1,1,0,0,0,51,28Z"/><path fill="#dae2e9" d="M14,39H12v4a1,1,0,0,0,1,1h4V42H14Z"/><path fill="#dae2e9" d="M50,42H47v2h4a1,1,0,0,0,1-1V39H50Z"/><rect fill="#dae2e9" x="42" y="35" width="2" height="2"/><rect fill="#dae2e9" x="20" y="35" width="2" height="2"/><rect fill="#dae2e9" x="29" y="56" width="6" height="2"/></g></svg>
